<svg height="2254" width="720" xmlns="http://www.w3.org/2000/svg">
<rect height="2254" fill="#555" width="720"></rect>
<text fill="#7f7" font-family="Courier New" font-size="12" xml:space="preserve">
<tspan x="10" y="26"></tspan>
<tspan x="10" y="42">&gt; npmdoc-redux@0.0.1 test /home/travis/build/npmdoc/node-npmdoc-redux</tspan>
<tspan x="10" y="58">&gt; (set -e; export PORT=$(utility2 shServerPortRandom); utility2 test test.js)</tspan>
<tspan x="10" y="74"></tspan>
<tspan x="10" y="90"></tspan>
<tspan x="10" y="106">[MODE_BUILD=npmTest] - 2017-03-25T12:24:09Z - npm-testing /home/travis/build/npmdoc/node-npmdoc-\</tspan>
<tspan x="10" y="122">redux</tspan>
<tspan x="10" y="138"></tspan>
<tspan x="10" y="154"></tspan>
<tspan x="10" y="170">covering $ /home/travis/.nvm/versions/node/v6.10.1/bin/node /home/travis/build/npmdoc/node-npmdo\</tspan>
<tspan x="10" y="186">c-redux/test.js</tspan>
<tspan x="10" y="202">merging file:///home/travis/build/npmdoc/node-npmdoc-redux/tmp/build/test-report.json to test-re\</tspan>
<tspan x="10" y="218">port</tspan>
<tspan x="10" y="234">&gt; server listening on http-port 64007</tspan>
<tspan x="10" y="250">created apidoc file:///home/travis/build/npmdoc/node-npmdoc-redux/tmp/build/apidoc.html</tspan>
<tspan x="10" y="266"></tspan>
<tspan x="10" y="282"></tspan>
<tspan x="10" y="298">browserTest - created electron entry-page /home/travis/build/npmdoc/node-npmdoc-redux/tmp/electr\</tspan>
<tspan x="10" y="314">on.15b056c84d90.93e99fadf9942.html</tspan>
<tspan x="10" y="330"></tspan>
<tspan x="10" y="346">[node test-case 1 of 6 passed] - testCase_buildLib_default</tspan>
<tspan x="10" y="362">[node test-case 2 of 6 passed] - testCase_buildReadme_default</tspan>
<tspan x="10" y="378">[node test-case 3 of 6 passed] - testCase_buildTest_default</tspan>
<tspan x="10" y="394"></tspan>
<tspan x="10" y="410">browserTest - created electron entry-page /home/travis/build/npmdoc/node-npmdoc-redux/tmp/electr\</tspan>
<tspan x="10" y="426">on.15b056c854c0.5be5ba867ba32.html</tspan>
<tspan x="10" y="442"></tspan>
<tspan x="10" y="458">Xlib:  extension "RANDR" missing on display ":99.0".</tspan>
<tspan x="10" y="474">Xlib:  extension "RANDR" missing on display ":99.0".</tspan>
<tspan x="10" y="490">&gt; server listening on http-port 45633</tspan>
<tspan x="10" y="506"></tspan>
<tspan x="10" y="522">/home/travis/build/npmdoc/node-npmdoc-redux/node_modules/utility2/lib.utility2.sh.html.js</tspan>
<tspan x="10" y="538"> #1 Line too long.</tspan>
<tspan x="10" y="554">    process.stdout.write('export npm_package_' + key.replace((/\W/g), '_') + '=' + JSON.stringif\</tspan>
<tspan x="10" y="570">y(value) + ';'); // Line 1445, Pos 116</tspan>
<tspan x="10" y="586"></tspan>
<tspan x="10" y="602">merging file:///home/travis/build/npmdoc/node-npmdoc-redux/tmp/build/test-report.json to test-re\</tspan>
<tspan x="10" y="618">port</tspan>
<tspan x="10" y="634">Xlib:  extension "RANDR" missing on display ":99.0".</tspan>
<tspan x="10" y="650">[4840:0325/122410:WARNING:audio_manager.cc(314)] Multiple instances of AudioManager detected</tspan>
<tspan x="10" y="666">[4840:0325/122410:WARNING:audio_manager.cc(275)] Multiple instances of AudioManager detected</tspan>
<tspan x="10" y="682">[4875:0325/122410:ERROR:sandbox_linux.cc(343)] InitializeSandbox() called with multiple threads \</tspan>
<tspan x="10" y="698">in process gpu-process. </tspan>
<tspan x="10" y="714"></tspan>
<tspan x="10" y="730">/home/travis/build/npmdoc/node-npmdoc-redux/node_modules/utility2/lib.utility2.sh.html.js</tspan>
<tspan x="10" y="746"> #1 Line too long.</tspan>
<tspan x="10" y="762">    process.stdout.write('export npm_package_' + key.replace((/\W/g), '_') + '=' + JSON.stringif\</tspan>
<tspan x="10" y="778">y(value) + ';'); // Line 1445, Pos 116</tspan>
<tspan x="10" y="794"></tspan>
<tspan x="10" y="810">[4840:0325/122410:ERROR:browser_gpu_channel_host_factory.cc(131)] Failed to create channel.</tspan>
<tspan x="10" y="826">merging file:///home/travis/build/npmdoc/node-npmdoc-redux/tmp/build/test-report.json to test-re\</tspan>
<tspan x="10" y="842">port</tspan>
<tspan x="10" y="858">Xlib:  extension "RANDR" missing on display ":99.0".</tspan>
<tspan x="10" y="874">[4852:0325/122411:WARNING:audio_manager.cc(314)] Multiple instances of AudioManager detected</tspan>
<tspan x="10" y="890">[4852:0325/122411:WARNING:audio_manager.cc(275)] Multiple instances of AudioManager detected</tspan>
<tspan x="10" y="906">[4907:0325/122411:ERROR:sandbox_linux.cc(343)] InitializeSandbox() called with multiple threads \</tspan>
<tspan x="10" y="922">in process gpu-process. </tspan>
<tspan x="10" y="938">[4852:0325/122411:ERROR:browser_gpu_channel_host_factory.cc(131)] Failed to create channel.</tspan>
<tspan x="10" y="954"></tspan>
<tspan x="10" y="970">browserTest - opened url file:///home/travis/build/npmdoc/node-npmdoc-redux/tmp/build/apidoc.htm\</tspan>
<tspan x="10" y="986">l</tspan>
<tspan x="10" y="1002"></tspan>
<tspan x="10" y="1018"></tspan>
<tspan x="10" y="1034">browserTest - opened url http://127.0.0.1:64007?modeTest=1</tspan>
<tspan x="10" y="1050"></tspan>
<tspan x="10" y="1066">[4852:0325/122413:INFO:CONSOLE(203)] "----------|-----------|-----------|-----------|-----------\</tspan>
<tspan x="10" y="1082">|</tspan>
<tspan x="10" y="1098">File      |   % Stmts |% Branches |   % Funcs |   % Lines |</tspan>
<tspan x="10" y="1114">----------|-----------|-----------|-----------|-----------|</tspan>
<tspan x="10" y="1130">----------|-----------|-----------|-----------|-----------|</tspan>
<tspan x="10" y="1146">All files |       100 |       100 |       100 |       100 |</tspan>
<tspan x="10" y="1162">----------|-----------|-----------|-----------|-----------|</tspan>
<tspan x="10" y="1178">", source: file:///home/travis/build/npmdoc/node-npmdoc-redux/tmp/electron.15b056c854c0.5be5ba86\</tspan>
<tspan x="10" y="1194">7ba32.html (203)</tspan>
<tspan x="10" y="1210">[4852:0325/122413:INFO:CONSOLE(203)] "created coverage file:///tmp/build/coverage.html/index.htm\</tspan>
<tspan x="10" y="1226">l", source: file:///home/travis/build/npmdoc/node-npmdoc-redux/tmp/electron.15b056c854c0.5be5ba8\</tspan>
<tspan x="10" y="1242">67ba32.html (203)</tspan>
<tspan x="10" y="1258">[node test-case 4 of 6 passed] - testCase_buildApp_default</tspan>
<tspan x="10" y="1274"></tspan>
<tspan x="10" y="1290">browserTest - created screen-capture file:///home/travis/build/npmdoc/node-npmdoc-redux/tmp/buil\</tspan>
<tspan x="10" y="1306">d/screen-capture.npmTest.browser._2Fhome_2Ftravis_2Fbuild_2Fnpmdoc_2Fnode-npmdoc-redux_2Ftmp_2Fb\</tspan>
<tspan x="10" y="1322">uild_2Fapidoc.html.png</tspan>
<tspan x="10" y="1338"></tspan>
<tspan x="10" y="1354"></tspan>
<tspan x="10" y="1370">browserTest - exit-code 0 - file:///home/travis/build/npmdoc/node-npmdoc-redux/tmp/build/apidoc.\</tspan>
<tspan x="10" y="1386">html</tspan>
<tspan x="10" y="1402"></tspan>
<tspan x="10" y="1418">[node test-case 5 of 6 passed] - testCase_buildApidoc_default</tspan>
<tspan x="10" y="1434"></tspan>
<tspan x="10" y="1450">browserTest - created screen-capture file:///home/travis/build/npmdoc/node-npmdoc-redux/tmp/buil\</tspan>
<tspan x="10" y="1466">d/screen-capture.npmTest.browser..png</tspan>
<tspan x="10" y="1482"></tspan>
<tspan x="10" y="1498"></tspan>
<tspan x="10" y="1514">browserTest - exit-code 0 - http://127.0.0.1:64007?modeTest=1</tspan>
<tspan x="10" y="1530"></tspan>
<tspan x="10" y="1546"></tspan>
<tspan x="10" y="1562">browserTest - merged coverage from /home/travis/build/npmdoc/node-npmdoc-redux/tmp/coverage.npmT\</tspan>
<tspan x="10" y="1578">est.browser.%2F.json</tspan>
<tspan x="10" y="1594"></tspan>
<tspan x="10" y="1610"></tspan>
<tspan x="10" y="1626">browserTest - merging test-report from /home/travis/build/npmdoc/node-npmdoc-redux/tmp/test-repo\</tspan>
<tspan x="10" y="1642">rt.npmTest.browser.%2F.json</tspan>
<tspan x="10" y="1658"></tspan>
<tspan x="10" y="1674">[node test-case 6 of 6 passed] - testCase_webpage_default</tspan>
<tspan x="10" y="1690">--------------------------|-----------|-----------|-----------|-----------|</tspan>
<tspan x="10" y="1706">File                      |   % Stmts |% Branches |   % Funcs |   % Lines |</tspan>
<tspan x="10" y="1722">--------------------------|-----------|-----------|-----------|-----------|</tspan>
<tspan x="10" y="1738">   node-npmdoc-redux/     |       100 |       100 |       100 |       100 |</tspan>
<tspan x="10" y="1754">      example.js          |       100 |       100 |       100 |       100 |</tspan>
<tspan x="10" y="1770">      lib.npmdoc_redux.js |       100 |       100 |       100 |       100 |</tspan>
<tspan x="10" y="1786">      test.js             |       100 |       100 |       100 |       100 |</tspan>
<tspan x="10" y="1802">--------------------------|-----------|-----------|-----------|-----------|</tspan>
<tspan x="10" y="1818">All files                 |       100 |       100 |       100 |       100 |</tspan>
<tspan x="10" y="1834">--------------------------|-----------|-----------|-----------|-----------|</tspan>
<tspan x="10" y="1850"></tspan>
<tspan x="10" y="1866">created coverage file:///home/travis/build/npmdoc/node-npmdoc-redux/tmp/build/coverage.html/inde\</tspan>
<tspan x="10" y="1882">x.html</tspan>
<tspan x="10" y="1898"></tspan>
<tspan x="10" y="1914">/home/travis/build/npmdoc/node-npmdoc-redux/node_modules/utility2/lib.utility2.sh.html.js</tspan>
<tspan x="10" y="1930"> #1 Line too long.</tspan>
<tspan x="10" y="1946">    process.stdout.write('export npm_package_' + key.replace((/\W/g), '_') + '=' + JSON.stringif\</tspan>
<tspan x="10" y="1962">y(value) + ';'); // Line 1445, Pos 116</tspan>
<tspan x="10" y="1978"></tspan>
<tspan x="10" y="1994">merging file:///home/travis/build/npmdoc/node-npmdoc-redux/tmp/build/test-report.json to test-re\</tspan>
<tspan x="10" y="2010">port</tspan>
<tspan x="10" y="2026"></tspan>
<tspan x="10" y="2042">-------------------------------------------------------</tspan>
<tspan x="10" y="2058">| test-report - buildNpmdoc - node - linux v6.10.1 - 2017-03-25T12:23:58.181Z</tspan>
<tspan x="10" y="2074">|   16604 ms            0 failed        6 passed      |</tspan>
<tspan x="10" y="2090">-------------------------------------------------------</tspan>
<tspan x="10" y="2106"></tspan>
<tspan x="10" y="2122">created test-report file:///home/travis/build/npmdoc/node-npmdoc-redux/tmp/build/test-report.htm\</tspan>
<tspan x="10" y="2138">l</tspan>
<tspan x="10" y="2154"></tspan>
<tspan x="10" y="2170"></tspan>
<tspan x="10" y="2186">npmTest - 0 failed tests</tspan>
<tspan x="10" y="2202"></tspan>
<tspan x="10" y="2218"></tspan>
<tspan x="10" y="2234">[MODE_BUILD=npmTest] - 2017-03-25T12:24:18Z - EXIT_CODE - 0</tspan>
</text>
</svg>
